<svg width="20" height="20" viewBox="0 0 20 20" fill="none" xmlns="http://www.w3.org/2000/svg">
<mask id="mask0_476_188" style="mask-type:alpha" maskUnits="userSpaceOnUse" x="0" y="0" width="20" height="20">
<rect width="20" height="20" fill="#D9D9D9"/>
</mask>
<g mask="url(#mask0_476_188)">
<path d="M10 19C8.75975 19 7.59422 18.7656 6.50341 18.2969C5.41259 17.8281 4.45703 17.1836 3.63672 16.3633C2.81641 15.543 2.17188 14.5863 1.70312 13.4932C1.23437 12.4001 1 11.2321 1 9.98927C1 8.74642 1.23437 7.58203 1.70312 6.49609C2.17188 5.41016 2.81641 4.45703 3.63672 3.63672C4.45703 2.81641 5.41373 2.17188 6.50683 1.70312C7.59994 1.23437 8.76791 1 10.0107 1C11.2536 1 12.418 1.23437 13.5039 1.70312C14.5898 2.17188 15.543 2.81641 16.3633 3.63672C17.1836 4.45703 17.8281 5.41016 18.2969 6.49609C18.7656 7.58203 19 8.75 19 10V11.4062C19 12.2632 18.6992 12.9931 18.0977 13.5959C17.4961 14.1986 16.7656 14.5 15.9062 14.5C15.375 14.5 14.8867 14.3672 14.4414 14.1016C13.9961 13.8359 13.6159 13.4844 13.3009 13.0469C12.8659 13.5 12.3633 13.8555 11.793 14.1133C11.2227 14.3711 10.625 14.5 10 14.5C8.755 14.5 7.69375 14.0607 6.81625 13.1822C5.93875 12.3037 5.5 11.2412 5.5 9.9947C5.5 8.74823 5.93927 7.6875 6.8178 6.8125C7.69633 5.9375 8.75883 5.5 10.0053 5.5C11.2518 5.5 12.3125 5.93875 13.1875 6.81625C14.0625 7.69375 14.5 8.755 14.5 10V11.4062C14.5 11.7994 14.6367 12.1321 14.9102 12.4042C15.1836 12.6764 15.5156 12.8125 15.9062 12.8125C16.2969 12.8125 16.6289 12.6764 16.9023 12.4042C17.1758 12.1321 17.3125 11.7994 17.3125 11.4062V10C17.3125 7.96875 16.6016 6.24219 15.1797 4.82031C13.7578 3.39844 12.0313 2.6875 10 2.6875C7.96875 2.6875 6.24219 3.39844 4.82031 4.82031C3.39844 6.24219 2.6875 7.96875 2.6875 10C2.6875 12.0313 3.39844 13.7578 4.82031 15.1797C6.24219 16.6016 7.97152 17.3125 10.0083 17.3125H13.6562C13.8953 17.3125 14.0957 17.3929 14.2574 17.5536C14.4191 17.7144 14.5 17.9136 14.5 18.1513C14.5 18.389 14.4191 18.5898 14.2574 18.7539C14.0957 18.918 13.8953 19 13.6562 19H10ZM10 12.8125C10.7812 12.8125 11.4453 12.5391 11.9922 11.9922C12.5391 11.4453 12.8125 10.7812 12.8125 10C12.8125 9.21875 12.5391 8.55469 11.9922 8.00781C11.4453 7.46094 10.7812 7.1875 10 7.1875C9.21875 7.1875 8.55469 7.46094 8.00781 8.00781C7.46094 8.55469 7.1875 9.21875 7.1875 10C7.1875 10.7812 7.46094 11.4453 8.00781 11.9922C8.55469 12.5391 9.21875 12.8125 10 12.8125Z" fill="black"/>
</g>
</svg>
