<svg width="20" height="20" viewBox="0 0 20 20" fill="none" xmlns="http://www.w3.org/2000/svg">
<mask id="mask0_656_37" style="mask-type:alpha" maskUnits="userSpaceOnUse" x="0" y="0" width="20" height="20">
<rect width="20" height="20" fill="#D9D9D9"/>
</mask>
<g mask="url(#mask0_656_37)">
<path d="M14 19C13.7875 19 13.6094 18.9267 13.4656 18.7802C13.3219 18.6337 13.25 18.4566 13.25 18.249C13.25 18.0413 13.3219 17.8646 13.4656 17.7188C13.6094 17.5729 13.7875 17.5 14 17.5C14.9722 17.5 15.7986 17.1597 16.4792 16.4792C17.1597 15.7986 17.5 14.9722 17.5 14C17.5 13.7926 17.5733 13.6158 17.7198 13.4696C17.8663 13.3232 18.0434 13.25 18.251 13.25C18.4587 13.25 18.6354 13.3232 18.7812 13.4696C18.9271 13.6158 19 13.7926 19 14C19 15.3832 18.5124 16.5623 17.5373 17.5373C16.5623 18.5124 15.3832 19 14 19ZM1.75437 6.75C1.54312 6.75 1.36458 6.67813 1.21875 6.53438C1.07292 6.39063 1 6.2125 1 6C1 4.61681 1.48757 3.43771 2.46271 2.46271C3.43771 1.48757 4.61681 1 6 1C6.20736 1 6.38417 1.07146 6.53042 1.21437C6.67681 1.35729 6.75 1.53437 6.75 1.74562C6.75 1.95687 6.67681 2.13542 6.53042 2.28125C6.38417 2.42708 6.20736 2.5 6 2.5C5.02778 2.5 4.20139 2.84028 3.52083 3.52083C2.84028 4.20139 2.5 5.02778 2.5 6C2.5 6.2125 2.42854 6.39063 2.28562 6.53438C2.14271 6.67813 1.96562 6.75 1.75437 6.75ZM15.4792 3.99854C15.6319 4.15035 15.7083 4.32743 15.7083 4.52979C15.7083 4.73215 15.6319 4.90972 15.4792 5.0625L10.9167 9.625C10.7639 9.77778 10.5903 9.85069 10.3958 9.84375C10.2014 9.83681 10.0278 9.76028 9.875 9.61417C9.72222 9.45472 9.64583 9.27313 9.64583 9.06938C9.64583 8.86576 9.72222 8.68986 9.875 8.54167L14.4167 4C14.5682 3.84722 14.7449 3.77083 14.9469 3.77083C15.149 3.77083 15.3264 3.84674 15.4792 3.99854ZM16.5417 6.47917C16.6944 6.63194 16.7708 6.81021 16.7708 7.01396C16.7708 7.21757 16.6944 7.39347 16.5417 7.54167L12.6875 11.3958C12.5347 11.5486 12.3611 11.6215 12.1667 11.6146C11.9722 11.6076 11.7986 11.5311 11.6458 11.385C11.4931 11.2256 11.4167 11.0451 11.4167 10.8438C11.4167 10.6424 11.4931 10.4653 11.6458 10.3125L15.4792 6.47917C15.6274 6.32639 15.8033 6.25 16.0069 6.25C16.2106 6.25 16.3889 6.32639 16.5417 6.47917ZM4.1875 15.3333C3.0625 14.2083 2.49306 12.8542 2.47917 11.2708C2.46528 9.6875 3.02083 8.33333 4.14583 7.20833L5.95188 5.40229C6.10896 5.24521 6.28826 5.16667 6.48979 5.16667C6.69118 5.16667 6.86743 5.24222 7.01854 5.39333L7.60417 5.97917C7.71528 6.09028 7.81944 6.20833 7.91667 6.33333C8.01389 6.45833 8.07639 6.60417 8.10417 6.77083L11.2292 3.64583C11.3774 3.49306 11.5533 3.41667 11.7569 3.41667C11.9606 3.41667 12.1389 3.49306 12.2917 3.64583C12.4444 3.79861 12.5208 3.97687 12.5208 4.18062C12.5208 4.38424 12.4444 4.56014 12.2917 4.70833L8.5 8.5L7.5625 9.45833L7.75 9.64583C8.29167 10.1875 8.55903 10.8333 8.55208 11.5833C8.54514 12.3333 8.26965 12.9803 7.72563 13.5244L7.70833 13.5417C7.55556 13.6944 7.38194 13.7674 7.1875 13.7604C6.99306 13.7535 6.81944 13.6769 6.66667 13.5308C6.51389 13.3714 6.4375 13.1898 6.4375 12.986C6.4375 12.7824 6.51389 12.6065 6.66667 12.4583C6.90278 12.2222 7.02431 11.9306 7.03125 11.5833C7.03819 11.2361 6.92299 10.9422 6.68563 10.7015L5.95833 9.97917C5.80556 9.83097 5.72917 9.65507 5.72917 9.45146C5.72917 9.24771 5.80556 9.06944 5.95833 8.91667L6.5 8.39583C6.69444 8.19583 6.79167 7.95833 6.79167 7.68333C6.79167 7.40833 6.69444 7.17361 6.5 6.97917L5.1875 8.27083C4.35417 9.10417 3.94792 10.1076 3.96875 11.2812C3.98958 12.4549 4.41667 13.4583 5.25 14.2917C6.08333 15.125 7.07792 15.5417 8.23375 15.5417C9.38944 15.5417 10.381 15.125 11.2083 14.2917L15.8502 9.64875C16.0056 9.49403 16.1852 9.41667 16.389 9.41667C16.5926 9.41667 16.7685 9.49306 16.9167 9.64583C17.0694 9.79403 17.1458 9.96993 17.1458 10.1735C17.1458 10.3773 17.0685 10.5565 16.9137 10.7113L12.2708 15.3333C11.1526 16.4583 9.80708 17.0208 8.23417 17.0208C6.66139 17.0208 5.3125 16.4583 4.1875 15.3333Z" fill="black"/>
</g>
</svg>
